<?xml version="1.0" standalone="no"?>
<!DOCTYPE svg PUBLIC "-//W3C//DTD SVG 20010904//EN"
 "http://www.w3.org/TR/2001/REC-SVG-20010904/DTD/svg10.dtd">
<svg version="1.0" xmlns="http://www.w3.org/2000/svg"
 width="250.000000pt" height="320.000000pt" viewBox="0 0 250.000000 320.000000"
 preserveAspectRatio="xMidYMid meet">

<circle cx="125" cy="160" r="155" fill="#4B5563"/>

<g transform="translate(0.000000,320.000000) scale(0.100000,-0.100000)"
fill="#84C7E1" stroke="#000000" stroke-width="10" stroke-linejoin="round" stroke-linecap="round">
<path d="M611 2907 c-13 -6 -32 -23 -42 -37 -20 -28 -323 -1574 -340 -1735
-26 -243 49 -485 201 -648 117 -126 252 -203 437 -249 76 -20 114 -23 273 -22
157 0 197 4 262 22 101 27 185 62 255 103 80 48 234 198 276 269 38 63 94 198
121 290 9 30 52 345 96 700 44 355 82 659 85 677 5 26 0 37 -28 67 l-34 36
-307 0 c-238 0 -306 3 -306 13 0 6 18 103 39 215 21 112 36 213 33 225 -9 38
-32 65 -64 76 -47 16 -925 15 -957 -2z m914 -119 c-12 -53 -95 -490 -95 -503
0 -13 51 -15 351 -15 l351 0 -5 -22 c-3 -13 -11 -57 -17 -98 -18 -123 -57
-375 -109 -710 -27 -173 -61 -398 -76 -500 -25 -169 -31 -190 -63 -245 -19
-33 -74 -99 -122 -147 -76 -75 -101 -93 -191 -136 -152 -73 -220 -87 -419 -86
-195 1 -271 17 -420 90 -79 39 -109 61 -175 128 -86 87 -129 158 -165 271 -31
97 -40 326 -16 417 14 55 306 1552 306 1571 0 4 196 7 435 7 l435 0 -5 -22z"/>
<path d="M812 2558 c-5 -29 -65 -340 -133 -690 -68 -350 -126 -635 -130 -632
-14 8 -22 -90 -16 -202 12 -229 95 -365 272 -450 95 -45 192 -64 334 -64 208
0 341 50 467 175 77 76 129 162 163 265 21 65 51 199 51 226 0 12 -37 14 -229
14 l-230 0 -11 -58 c-16 -80 -57 -151 -100 -174 -46 -24 -134 -24 -180 0 -19
10 -43 34 -53 53 -25 46 -20 100 38 396 l48 243 355 2 356 3 32 170 c18 94 35
185 39 203 l6 32 -351 0 c-318 0 -350 2 -350 16 0 17 87 476 96 507 5 16 -11
17 -229 17 l-234 0 -11 -52z m944 -1510 c-22 -93 -52 -164 -102 -240 -111
-167 -273 -254 -489 -263 -108 -5 -99 0 55 30 126 24 249 87 329 168 35 35 83
95 107 132 40 62 104 208 104 236 0 7 2 10 5 7 4 -3 -1 -35 -9 -70z"/>
</g>
</svg>
